<?xml version="1.0" encoding="utf-8"?>
<!-- Generator: Adobe Illustrator 16.0.0, SVG Export Plug-In . SVG Version: 6.00 Build 0)  -->
<!DOCTYPE svg PUBLIC "-//W3C//DTD SVG 1.1//EN" "http://www.w3.org/Graphics/SVG/1.1/DTD/svg11.dtd">
<svg version="1.1" id="Layer_1" xmlns="http://www.w3.org/2000/svg" xmlns:xlink="http://www.w3.org/1999/xlink" x="0px" y="0px"
	 width="769px" height="125.516px" viewBox="0 0 769 125.516" enable-background="new 0 0 769 125.516" xml:space="preserve">
<g>
	<g>
		<path fill-rule="evenodd" clip-rule="evenodd" fill="#404E9E" d="M416.179,119.073c1.294,2.253,1.273,3.838-0.032,5.271
			c-1.028,1.131-2.799,1.494-4.24,0.865c-1.465-0.635-2.394-2.234-2.217-3.809c0.214-1.913,1.37-2.931,3.961-3.484
			c-1.47-1.39-1.556-1.868-0.678-3.752c5.319-11.409,10.642-22.818,15.961-34.227c4.271-6.517,5.039-13.938,5.345-21.419
			c0.332-8.155,0.321-16.323,0.649-24.478c0.187-4.685,0.51-9.394,1.191-14.027c1.064-7.209,5.137-12.506,11.51-15.891
			c7.186-3.814,14.589-4.071,21.925-0.393c9.582,4.799,14.679,16.926,11.671,27.182c-1.349,4.592-4.062,8.271-7.463,11.426
			c-5.979,5.55-12.111,10.936-18.209,16.361c-5.096,4.535-10.268,8.999-14.605,14.299c-1.214,1.488-2.312,3.082-3.347,4.699
			c-0.396,0.627-0.361,1.51-0.681,2.202c-5.855,12.605-11.733,25.199-17.609,37.793
			C418.664,119.078,418.003,119.373,416.179,119.073z M467.813,4.472c-0.322,0.143-0.53,0.222-0.728,0.323
			c-2.994,1.53-5.383,3.774-7.457,6.375c-4.152,5.212-6.729,11.232-8.929,17.442c-3.081,8.72-4.527,17.849-6.744,26.897
			c0.876-1.233,1.648-2.434,2.535-3.548c5.641-7.07,11.286-14.133,15.649-22.101c2.627-4.799,4.899-9.746,5.906-15.18
			C468.668,11.309,468.769,7.945,467.813,4.472z M438.392,70.731c0.048,0.025,0.101,0.047,0.145,0.07
			c1.441-1.84,2.817-3.737,4.334-5.509c7.214-8.428,14.359-16.921,21.747-25.191c4.737-5.297,7.968-11.188,8.974-18.244
			c0.657-4.594,0.413-9.077-1.928-13.227c-0.547-0.97-1.263-1.839-1.904-2.755c-0.212,0.312-0.22,0.501-0.192,0.684
			c0.371,2.675,0.264,5.342-0.22,7.993c-1.251,6.868-4.289,13-7.838,18.91c-3.638,6.057-7.927,11.655-12.358,17.146
			c-4.05,5.019-7.374,10.449-9.416,16.609C439.342,68.408,438.842,69.559,438.392,70.731z M472.653,7.29
			c0.662,1.86,1.584,3.644,1.925,5.535c1.688,9.328-0.658,17.766-6.563,25.032c-5.511,6.782-11.466,13.199-17.176,19.822
			c-4.644,5.387-9.234,10.825-13.224,16.729c-0.526,0.78-0.988,1.607-1.482,2.41c0.088,0.058,0.174,0.117,0.257,0.177
			c0.138-0.142,0.293-0.271,0.414-0.428c1.757-2.267,3.374-4.656,5.283-6.784c5.2-5.797,11.186-10.762,17.052-15.848
			c5.204-4.508,10.438-8.975,15.209-13.963c5.329-5.569,7.499-12.056,6.012-19.65C479.334,15.08,476.697,10.749,472.653,7.29z
			 M432.897,75.347c0.104,0.045,0.208,0.087,0.312,0.127c0.163-0.405,0.375-0.799,0.48-1.217c0.979-3.959,2.164-7.884,2.862-11.893
			c1.903-10.895,3.704-21.814,5.329-32.754c0.914-6.175,2.854-11.841,6.675-16.819c3.723-4.853,8.156-8.636,14.405-9.748
			c0.056-0.009,0.103-0.073,0.235-0.171c-0.376-0.071-0.684-0.146-0.995-0.187c-4.314-0.592-8.487-0.038-12.439,1.777
			c-6.119,2.811-10.521,7.284-12.013,13.949c-0.876,3.922-1.24,8-1.416,12.029c-0.344,7.891-0.355,15.795-0.578,23.691
			c-0.165,5.941-0.54,11.87-1.89,17.686C433.589,73.008,433.223,74.171,432.897,75.347z M436.478,69.173
			c0.239-0.348,0.353-0.498,0.451-0.657c3.036-5.051,5.084-10.519,6.506-16.21c1.169-4.681,2.014-9.446,3.182-14.127
			c2.08-8.327,4.723-16.454,9.254-23.833c2.326-3.788,5.116-7.167,8.871-9.655c0.162-0.11,0.299-0.26,0.513-0.451
			c-0.227-0.035-0.323-0.06-0.416-0.057c-0.261,0.008-0.523,0.021-0.782,0.042c-4.043,0.368-7.442,2.167-10.377,4.851
			c-5.805,5.301-9.217,11.835-10.373,19.665c-1.563,10.615-3.348,21.199-5.089,31.787C437.749,63.343,437.094,66.133,436.478,69.173
			z M411.999,124.478c1.561,0.756,3.59,0.097,4.137-1.426c0.262-0.73,0.149-1.64,0.043-2.447c-0.087-0.673-0.626-0.944-1.336-0.94
			c-0.293,0.002-0.7-0.177-0.861-0.405c-0.616-0.866-1.317-0.472-1.949-0.159c-1.075,0.538-1.648,1.451-1.636,2.672
			C410.409,123.029,411.036,123.92,411.999,124.478z"/>
	</g>
	<g>
		<path fill-rule="evenodd" clip-rule="evenodd" fill="#F58D31" d="M425.526,91.111c-0.188-0.398-0.362-0.776-0.539-1.152
			c-5.51-11.818-11.021-23.641-16.539-35.459c-0.366-0.785-0.707-1.43-1.657-1.928c-3.274-1.718-6.678-2.734-10.359-2.778
			c-10.748-0.129-20.22-7.274-23.459-17.739c-3.098-10.004,0.706-21.272,9.222-27.321c11.729-8.326,27.541-5.386,35.455,6.595
			c5.812,8.8,5.292,20.605-1.328,28.979c-1.905,2.412-3.345,5.053-4.341,7.941c-0.32,0.931-0.537,1.902-0.743,2.865
			c-0.047,0.216,0.116,0.491,0.224,0.718c5.739,12.321,11.487,24.639,17.22,36.962c0.237,0.506,0.484,0.714,1.087,0.621
			c1.054-0.163,1.812,0.361,2.254,1.302c4.468,9.564,8.931,19.132,13.379,28.704c0.585,1.261,0.178,2.361-1.076,2.991
			c-1.127,0.565-2.27,1.101-3.427,1.594c-1.3,0.555-2.364,0.157-2.967-1.123c-4.471-9.562-8.929-19.134-13.388-28.701
			C423.942,92.902,424.496,91.952,425.526,91.111z M438.588,118.518c0.229,0.497,0.433,1.008,0.7,1.484
			c0.437,0.794,1.34,1.107,2.15,0.788c0.825-0.327,1.326-1.164,1.01-2.03c-0.403-1.111-0.913-2.2-1.491-3.231
			c-0.438-0.786-1.452-1.007-2.195-0.638c-0.79,0.392-1.159,1.345-0.818,2.223C438.125,117.594,438.368,118.051,438.588,118.518z
			 M388.413,6.94c-0.116,0.765-0.367,1.3-0.195,1.583c0.175,0.291,0.761,0.333,1.166,0.484c0.147-0.409,0.496-0.89,0.387-1.21
			C389.662,7.487,389.083,7.336,388.413,6.94z M407.48,24.981c-0.742-0.137-1.285-0.409-1.561-0.241
			c-0.285,0.175-0.525,0.871-0.393,1.159c0.128,0.279,0.824,0.529,1.144,0.422C406.974,26.218,407.114,25.631,407.48,24.981z
			 M402.565,32.882c-0.768-0.103-1.306-0.339-1.583-0.164c-0.282,0.181-0.525,0.88-0.387,1.142c0.146,0.278,0.834,0.511,1.151,0.396
			C402.052,34.143,402.187,33.562,402.565,32.882z M392.04,15.705c-0.172,0.766-0.459,1.29-0.309,1.578
			c0.156,0.295,0.827,0.579,1.122,0.468c0.275-0.102,0.559-0.784,0.468-1.109C393.234,16.327,392.675,16.143,392.04,15.705z
			 M387.537,34.858c-0.063-0.119-0.125-0.243-0.188-0.364c-0.422-0.064-0.973-0.314-1.237-0.139c-0.287,0.192-0.311,0.78-0.45,1.196
			c0.41,0.129,0.885,0.443,1.215,0.331C387.178,35.779,387.321,35.218,387.537,34.858z M383.453,29.924
			c-0.122,0.06-0.246,0.116-0.369,0.173c-0.056,0.418-0.292,0.958-0.117,1.221c0.194,0.293,0.767,0.335,1.173,0.486
			c0.148-0.417,0.494-0.898,0.383-1.231C384.424,30.273,383.83,30.134,383.453,29.924z M409.749,33.28
			c-0.762-0.144-1.296-0.414-1.573-0.25c-0.291,0.173-0.343,0.759-0.496,1.165c0.404,0.153,0.869,0.502,1.197,0.401
			C409.183,34.504,409.343,33.934,409.749,33.28z M408.437,15.077c-0.053-0.127-0.106-0.252-0.158-0.377
			c-0.418-0.074-0.951-0.339-1.217-0.175c-0.301,0.185-0.361,0.761-0.523,1.166c0.406,0.154,0.87,0.503,1.203,0.404
			C408.045,16.005,408.212,15.436,408.437,15.077z M395.467,21.883c0.122-0.052,0.249-0.104,0.372-0.156
			c0.094-0.42,0.387-0.956,0.228-1.229c-0.177-0.302-0.762-0.367-1.173-0.532c-0.158,0.403-0.509,0.858-0.421,1.197
			C394.554,21.469,395.117,21.648,395.467,21.883z M391.58,42.699c-0.052-0.123-0.103-0.249-0.154-0.372
			c-0.418-0.095-0.945-0.387-1.221-0.233c-0.301,0.17-0.371,0.754-0.54,1.157c0.401,0.167,0.854,0.525,1.195,0.438
			C391.165,43.614,391.346,43.049,391.58,42.699z M414.074,30.435c-0.147,0.763-0.422,1.294-0.26,1.58
			c0.165,0.288,0.845,0.544,1.138,0.425c0.276-0.118,0.541-0.805,0.439-1.125C415.294,31.005,414.725,30.843,414.074,30.435z
			 M388.413,19.07c-0.109,0.75-0.351,1.286-0.176,1.563c0.174,0.283,0.873,0.531,1.133,0.396c0.286-0.151,0.539-0.834,0.426-1.145
			C389.68,19.579,389.091,19.444,388.413,19.07z M400.009,38.228c-0.121,0.062-0.242,0.123-0.362,0.185
			c-0.049,0.421-0.278,0.967-0.099,1.231c0.196,0.285,0.777,0.307,1.189,0.443c0.131-0.416,0.45-0.901,0.333-1.229
			C400.963,38.559,400.383,38.43,400.009,38.228z M396.361,43.71c-0.057-0.125-0.112-0.249-0.168-0.372
			c-0.418-0.062-0.947-0.301-1.221-0.131c-0.293,0.183-0.346,0.751-0.504,1.15c0.412,0.155,0.885,0.503,1.218,0.399
			C395.989,44.662,396.141,44.079,396.361,43.71z M412.959,37.22c0.099-0.755,0.336-1.296,0.156-1.572
			c-0.178-0.278-0.877-0.501-1.149-0.365c-0.277,0.146-0.515,0.838-0.396,1.144C411.692,36.733,412.276,36.856,412.959,37.22z
			 M383.412,22.142c0.123-0.059,0.245-0.116,0.371-0.176c0.053-0.414,0.291-0.949,0.116-1.213c-0.195-0.292-0.765-0.33-1.171-0.478
			c-0.143,0.412-0.485,0.89-0.374,1.217C382.457,21.793,383.04,21.93,383.412,22.142z M401.452,43.227
			c-0.754-0.16-1.29-0.444-1.573-0.285c-0.288,0.159-0.532,0.841-0.416,1.15c0.1,0.267,0.798,0.535,1.112,0.432
			C400.887,44.423,401.052,43.862,401.452,43.227z M394.802,10.618c-0.756-0.116-1.288-0.363-1.568-0.193
			c-0.284,0.169-0.528,0.861-0.396,1.129c0.137,0.281,0.817,0.538,1.126,0.426C394.273,11.866,394.415,11.29,394.802,10.618z
			 M381.31,13.372c-0.123,0.055-0.244,0.106-0.367,0.163c-0.086,0.421-0.369,0.957-0.208,1.236c0.172,0.297,0.766,0.349,1.174,0.509
			c0.159-0.405,0.509-0.867,0.414-1.194C382.231,13.775,381.665,13.604,381.31,13.372z M399.608,6.204
			c-0.057-0.124-0.117-0.244-0.179-0.366c-0.422-0.062-0.968-0.31-1.233-0.133c-0.289,0.194-0.318,0.778-0.463,1.192
			c0.413,0.141,0.894,0.472,1.224,0.36C399.261,7.158,399.397,6.576,399.608,6.204z M415.168,20.953
			c-0.12,0.058-0.241,0.12-0.362,0.179c-0.055,0.417-0.297,0.964-0.118,1.216c0.205,0.287,0.777,0.314,1.191,0.457
			c0.141-0.418,0.471-0.9,0.358-1.233C416.139,21.281,415.545,21.152,415.168,20.953z M381.128,32.608
			c-0.745-0.131-1.279-0.394-1.555-0.226c-0.288,0.173-0.553,0.863-0.422,1.132c0.139,0.287,0.817,0.551,1.138,0.447
			C380.595,33.86,380.741,33.274,381.128,32.608z M409.724,29.563c0.054,0.124,0.106,0.251,0.159,0.373
			c0.416,0.08,0.945,0.351,1.215,0.188c0.298-0.18,0.359-0.756,0.522-1.158c-0.406-0.16-0.865-0.51-1.204-0.416
			C410.113,28.632,409.949,29.206,409.724,29.563z M404.41,7.308c-0.053-0.121-0.106-0.245-0.159-0.368
			c-0.418-0.076-0.95-0.341-1.223-0.175c-0.299,0.177-0.354,0.755-0.517,1.16c0.406,0.154,0.87,0.506,1.203,0.409
			C404.023,8.242,404.186,7.67,404.41,7.308z M386.404,16.374c-0.058-0.123-0.116-0.243-0.171-0.366
			c-0.423-0.074-0.965-0.338-1.232-0.168c-0.292,0.189-0.335,0.773-0.486,1.185c0.408,0.143,0.877,0.472,1.207,0.368
			C386.028,17.297,386.183,16.732,386.404,16.374z M412.578,12.581c-0.767-0.137-1.302-0.4-1.589-0.235
			c-0.288,0.166-0.544,0.854-0.42,1.143c0.12,0.273,0.814,0.531,1.133,0.425C412.016,13.81,412.171,13.239,412.578,12.581z
			 M378.763,29.504c0.118-0.06,0.234-0.119,0.353-0.182c0.039-0.421,0.251-0.964,0.062-1.226c-0.196-0.283-0.77-0.303-1.179-0.436
			c-0.13,0.42-0.456,0.913-0.33,1.235C377.785,29.195,378.38,29.31,378.763,29.504z M396.525,38.979
			c-0.768-0.125-1.307-0.379-1.574-0.211c-0.287,0.182-0.527,0.864-0.397,1.147c0.124,0.273,0.815,0.51,1.136,0.402
			C395.991,40.215,396.136,39.646,396.525,38.979z M410.235,39.073c-0.76-0.131-1.309-0.396-1.575-0.225
			c-0.286,0.181-0.517,0.861-0.388,1.163c0.114,0.266,0.816,0.499,1.14,0.391C409.713,40.3,409.855,39.727,410.235,39.073z
			 M406.117,41.718c-0.75-0.119-1.277-0.369-1.553-0.202c-0.291,0.175-0.561,0.865-0.43,1.117c0.15,0.289,0.817,0.549,1.135,0.446
			C405.576,42.977,405.723,42.395,406.117,41.718z M391.76,37.605c-0.759-0.156-1.281-0.436-1.569-0.28
			c-0.293,0.163-0.574,0.842-0.456,1.122c0.121,0.284,0.797,0.557,1.123,0.463C391.169,38.819,391.341,38.251,391.76,37.605z
			 M405.932,29.928c-0.056-0.12-0.108-0.242-0.164-0.363c-0.419-0.077-0.955-0.349-1.227-0.184
			c-0.293,0.179-0.345,0.763-0.502,1.172c0.406,0.15,0.871,0.5,1.201,0.4C405.544,30.859,405.706,30.289,405.932,29.928z
			 M412.514,23.752c-0.764-0.098-1.307-0.335-1.571-0.156c-0.281,0.191-0.3,0.772-0.433,1.185c0.411,0.132,0.895,0.456,1.213,0.338
			C412.022,25.009,412.147,24.429,412.514,23.752z M393.038,32.875c-0.061-0.119-0.12-0.239-0.178-0.358
			c-0.422-0.054-0.968-0.29-1.231-0.109c-0.286,0.192-0.313,0.773-0.453,1.186c0.415,0.13,0.896,0.45,1.224,0.336
			C392.699,33.824,392.832,33.246,393.038,32.875z M382.33,36.276c-0.127,0.058-0.252,0.114-0.375,0.169
			c-0.083,0.417-0.362,0.954-0.199,1.218c0.181,0.296,0.762,0.346,1.17,0.503c0.151-0.405,0.487-0.861,0.395-1.199
			C383.241,36.669,382.677,36.503,382.33,36.276z M406.112,36.681c-0.759-0.121-1.295-0.374-1.578-0.205
			c-0.283,0.172-0.53,0.867-0.396,1.141c0.135,0.278,0.822,0.52,1.138,0.413C405.584,37.921,405.728,37.346,406.112,36.681z
			 M394.707,6.432c-0.053-0.12-0.109-0.239-0.165-0.363c-0.417-0.062-0.946-0.304-1.218-0.135c-0.288,0.181-0.553,0.876-0.421,1.125
			c0.158,0.287,0.825,0.536,1.147,0.43C394.354,7.389,394.495,6.803,394.707,6.432z M402.628,25.688
			c-0.057-0.12-0.114-0.239-0.173-0.357c-0.419-0.075-0.961-0.339-1.233-0.169c-0.284,0.179-0.52,0.85-0.397,1.154
			c0.104,0.26,0.808,0.503,1.13,0.396C402.259,26.609,402.409,26.048,402.628,25.688z M388.758,12.147
			c-0.12,0.05-0.243,0.102-0.364,0.152c-0.079,0.418-0.349,0.946-0.188,1.221c0.174,0.294,0.753,0.353,1.151,0.515
			c0.161-0.401,0.518-0.863,0.421-1.185C389.683,12.54,389.116,12.376,388.758,12.147z M388.96,30.657
			c0.123-0.059,0.246-0.118,0.369-0.174c0.068-0.418,0.326-0.96,0.154-1.217c-0.193-0.291-0.771-0.329-1.182-0.478
			c-0.139,0.409-0.468,0.877-0.365,1.21C388.03,30.296,388.602,30.442,388.96,30.657z M410.473,20.525
			c0.122-0.06,0.239-0.12,0.361-0.177c0.039-0.42,0.253-0.958,0.071-1.227c-0.189-0.282-0.761-0.306-1.169-0.446
			c-0.136,0.417-0.475,0.908-0.351,1.223C409.504,20.202,410.093,20.323,410.473,20.525z M413.434,16.054
			c-0.134,0.767-0.399,1.301-0.234,1.577c0.176,0.294,0.762,0.346,1.165,0.504c0.152-0.409,0.5-0.879,0.4-1.208
			C414.669,16.619,414.096,16.461,413.434,16.054z M378.758,17.562c-0.153,0.755-0.434,1.287-0.273,1.564
			c0.166,0.291,0.854,0.56,1.135,0.435c0.281-0.126,0.542-0.805,0.444-1.134C379.975,18.125,379.402,17.963,378.758,17.562z
			 M404.976,19.771c-0.12,0.052-0.245,0.104-0.37,0.156c-0.088,0.416-0.369,0.941-0.208,1.219c0.165,0.297,0.745,0.361,1.146,0.526
			c0.162-0.401,0.523-0.854,0.435-1.183C405.893,20.181,405.331,20.005,404.976,19.771z M377.189,23.84
			c0.058,0.122,0.116,0.245,0.173,0.367c0.418,0.063,0.959,0.316,1.225,0.14c0.288-0.187,0.322-0.767,0.464-1.177
			c-0.407-0.141-0.877-0.474-1.208-0.368C377.543,22.901,377.4,23.477,377.189,23.84z M408.751,9.519
			c-0.059-0.118-0.116-0.236-0.174-0.354c-0.423-0.056-0.96-0.293-1.232-0.115c-0.282,0.181-0.517,0.87-0.38,1.138
			c0.142,0.275,0.827,0.506,1.143,0.393C408.412,10.469,408.544,9.893,408.751,9.519z M396.96,14.849
			c-0.123,0.062-0.246,0.123-0.372,0.185c-0.046,0.416-0.271,0.958-0.093,1.216c0.2,0.286,0.771,0.316,1.18,0.458
			c0.133-0.419,0.456-0.9,0.341-1.229C397.916,15.181,397.331,15.05,396.96,14.849z M382.811,27.129
			c0.125-0.056,0.247-0.114,0.374-0.171c0.076-0.418,0.345-0.956,0.178-1.223c-0.183-0.295-0.766-0.339-1.174-0.494
			c-0.146,0.406-0.486,0.867-0.386,1.2C381.893,26.746,382.457,26.905,382.811,27.129z M401.344,16.052
			c-0.148,0.756-0.42,1.287-0.26,1.58c0.155,0.284,0.849,0.535,1.137,0.412c0.277-0.12,0.542-0.805,0.438-1.12
			C402.556,16.613,401.986,16.453,401.344,16.052z M398.773,11.948c0.125-0.054,0.251-0.104,0.379-0.158
			c0.094-0.416,0.39-0.942,0.235-1.217c-0.169-0.301-0.751-0.371-1.153-0.542c-0.162,0.398-0.516,0.846-0.431,1.179
			C397.882,11.519,398.432,11.708,398.773,11.948z M393.523,23.91c-0.759-0.118-1.293-0.366-1.584-0.197
			c-0.278,0.162-0.51,0.858-0.38,1.133c0.132,0.276,0.82,0.524,1.124,0.41C392.994,25.141,393.135,24.573,393.523,23.91z
			 M399.28,20.389c-0.091,0.757-0.323,1.302-0.143,1.562c0.193,0.283,0.888,0.509,1.156,0.368c0.274-0.144,0.492-0.844,0.371-1.158
			C400.552,20.862,399.964,20.744,399.28,20.389z M415.129,25.636c-0.14,0.754-0.404,1.277-0.244,1.564
			c0.163,0.289,0.848,0.564,1.114,0.44c0.286-0.131,0.555-0.805,0.456-1.121C416.354,26.208,415.784,26.046,415.129,25.636z
			 M387.375,40.035c-0.771-0.113-1.317-0.36-1.588-0.185c-0.282,0.181-0.495,0.864-0.362,1.159c0.119,0.262,0.825,0.486,1.137,0.368
			C386.866,41.264,387.001,40.695,387.375,40.035z M397.192,35.817c0.135-0.756,0.396-1.284,0.234-1.567
			c-0.17-0.292-0.75-0.352-1.149-0.51c-0.16,0.404-0.52,0.869-0.42,1.19C395.957,35.24,396.527,35.401,397.192,35.817z
			 M393.758,27.826c-0.123,0.052-0.244,0.104-0.366,0.157c-0.084,0.42-0.36,0.951-0.198,1.232c0.171,0.297,0.754,0.357,1.161,0.517
			c0.158-0.403,0.513-0.863,0.415-1.192C394.679,28.231,394.113,28.058,393.758,27.826z M388.786,24.269
			c-0.752-0.071-1.293-0.286-1.562-0.104c-0.277,0.189-0.505,0.892-0.362,1.138c0.165,0.277,0.848,0.505,1.154,0.383
			C388.317,25.561,388.428,24.972,388.786,24.269z M404.599,11.799c-0.76-0.155-1.291-0.432-1.562-0.272
			c-0.296,0.179-0.353,0.759-0.513,1.165c0.404,0.16,0.866,0.515,1.196,0.42C404.023,13.025,404.186,12.451,404.599,11.799z
			 M396.601,23.496c-0.136,0.763-0.4,1.294-0.233,1.57c0.177,0.294,0.758,0.345,1.164,0.499c0.15-0.407,0.499-0.873,0.396-1.2
			C397.833,24.059,397.26,23.9,396.601,23.496z M385.39,12.041c0.155-0.757,0.434-1.287,0.273-1.576
			c-0.158-0.287-0.832-0.536-1.137-0.419c-0.265,0.1-0.53,0.795-0.43,1.107C384.198,11.465,384.756,11.632,385.39,12.041z
			 M398.371,28.588c-0.12,0.057-0.24,0.119-0.362,0.179c-0.069,0.421-0.328,0.965-0.157,1.229c0.188,0.289,0.775,0.316,1.188,0.456
			c0.135-0.406,0.457-0.875,0.351-1.202C399.291,28.95,398.729,28.801,398.371,28.588z"/>
	</g>
</g>
<g>
	<path fill="#F48C31" d="M21.099-0.479v97.196c0,9,3.959,12.239,10.259,12.239s10.26-3.239,10.26-12.239V-0.479h18.719v95.937
		c0,20.159-10.08,31.679-29.519,31.679c-19.439,0-29.519-11.52-29.519-31.679V-0.479H21.099z"/>
	<path fill="#F48C31" d="M115.237,125.516c-1.08-3.24-1.8-5.22-1.8-15.479V90.238c0-11.7-3.96-16.02-12.96-16.02h-6.839v51.298
		H73.839V-0.479h29.879c20.519,0,29.339,9.54,29.339,28.979v9.9c0,12.959-4.14,21.239-12.959,25.379v0.36
		c9.899,4.139,13.139,13.499,13.139,26.639v19.439c0,6.119,0.18,10.619,2.16,15.299H115.237z M93.638,17.521v38.699h7.74
		c7.379,0,11.879-3.24,11.879-13.32V30.48c0-9-3.06-12.959-10.08-12.959H93.638z"/>
	<path fill="#F48C31" d="M205.416,28.5V33c0,12.959-3.96,21.059-12.78,25.199v0.36c10.62,4.14,14.76,13.499,14.76,26.818v10.26
		c0,19.439-10.26,29.879-30.059,29.879h-31.139V-0.479h29.879C196.596-0.479,205.416,9.061,205.416,28.5z M165.997,17.521v33.299
		h7.74c7.379,0,11.879-3.24,11.879-13.32v-7.02c0-9-3.06-12.959-10.08-12.959H165.997z M165.997,68.819v38.698h11.339
		c6.66,0,10.26-3.06,10.26-12.42V84.118c0-11.699-3.78-15.299-12.78-15.299H165.997z"/>
	<path fill="#F48C31" d="M283.354,125.516h-19.979l-3.42-22.859h-24.299l-3.42,22.859h-18.179L234.215-0.479h28.979L283.354,125.516
		z M238.175,85.557h19.079l-9.36-63.717h-0.36L238.175,85.557z"/>
	<path fill="#F48C31" d="M310.535,34.26h-0.36v91.256h-17.819V-0.479h24.839l19.979,75.417h0.36V-0.479h17.639v125.995h-20.339
		L310.535,34.26z"/>
</g>
<g>
	<path fill="#3F4F9D" d="M560.617,78.538v16.74c0,20.158-10.08,31.678-29.519,31.678c-19.439,0-29.519-11.52-29.519-31.678V29.76
		c0-20.159,10.079-31.679,29.519-31.679c19.438,0,29.519,11.52,29.519,31.679V42h-18.719V28.5c0-9-3.96-12.419-10.26-12.419
		s-10.26,3.42-10.26,12.419v68.038c0,9,3.96,12.239,10.26,12.239s10.26-3.239,10.26-12.239v-18H560.617z"/>
	<path fill="#3F4F9D" d="M592.477,125.516h-19.799V-0.479h19.799v53.998h22.499V-0.479h20.159v125.995h-20.159V71.518h-22.499
		V125.516z"/>
	<path fill="#3F4F9D" d="M669.334,52.619h27.179v17.999h-27.179v36.899h34.198v17.999h-53.997V-0.479h53.997v18h-34.198V52.619z"/>
	<path fill="#3F4F9D" d="M735.573,55.499h25.559v18h-25.559v52.018h-19.8V-0.479h52.379v18h-32.579V55.499z"/>
</g>
</svg>
